# xmcd
#
# Track frame offsets:
#	150
#	14295
#	35740
#	56750
#	79443
#	81169
#	100208
#	121148
#	141561
#	162633
#	183982
#	191082
#	210981
#	231719
#	233823
#	254600
#	272605
#	293323
#	314120
#	338194
#
# Disc length: 4766 seconds
#
# Revision: 1
# Processed by: cddbd v1.5.1PL0 Copyright (c) Steve Scherf et al.
# Submitted via: audiograbber 1.83.01
#
DISCID=32129c14
DTITLE=Lil Wayne - Tha Carter
DYEAR=2004
DGENRE=Rap
TTITLE0=Walk In
TTITLE1=Go DJ
TTITLE2=This Is the Carter
TTITLE3=BM J.R.
TTITLE4=On the Block #1
TTITLE5=I Miss My Dawgs
TTITLE6=We Don't
TTITLE7=On My Own
TTITLE8=Tha Heat
TTITLE9=Cash Money Millionaires
TTITLE10=Inside
TTITLE11=Bring It Back
TTITLE12=Who Wanna
TTITLE13=On the Block #2
TTITLE14=Get Down
TTITLE15=Snitch
TTITLE16=Hoes
TTITLE17=Only Way
TTITLE18=Earthquake
TTITLE19=Ain't That a Bitch
EXTD=
EXTT0=
EXTT1=
EXTT2=
EXTT3=
EXTT4=
EXTT5=
EXTT6=
EXTT7=
EXTT8=
EXTT9=
EXTT10=
EXTT11=
EXTT12=
EXTT13=
EXTT14=
EXTT15=
EXTT16=
EXTT17=
EXTT18=
EXTT19=
PLAYORDER=
